<svg xmlns="http://www.w3.org/2000/svg" version="1.1" xmlns:xlink="http://www.w3.org/1999/xlink" xmlns:svgjs="http://svgjs.dev/svgjs" width="1440" height="560" preserveAspectRatio="none" viewBox="0 0 1440 560"><g mask="url(&quot;#SvgjsMask1001&quot;)" fill="none"><rect width="1440" height="560" x="0" y="0" fill="rgba(40, 102, 167, 1)"></rect><path d="M0,597.079C110.074,605.196,169.397,466.165,254.132,395.438C326.761,334.816,416.452,293.871,462.362,211.153C510.228,124.911,525.103,24.083,514.678,-74C504.001,-174.454,474.222,-277.583,402.822,-349.047C333.243,-418.688,228.446,-428.611,133.695,-455.323C40.034,-481.728,-54.515,-531.057,-148.094,-504.362C-241.86,-477.613,-311.571,-397.182,-362.208,-313.855C-408.114,-238.313,-394.018,-145.173,-418.064,-60.109C-447.02,42.326,-561.074,139.215,-517.77,236.458C-474.589,333.424,-318.237,298.989,-231.135,359.654C-138.627,424.085,-112.429,588.788,0,597.079" fill="#205286"></path><path d="M1440 1143.344C1547.377 1143.101 1609.744 1022.696 1698.8609999999999 962.796 1785.588 904.5029999999999 1890.828 877.065 1956.768 796 2034.6570000000002 700.246 2103.7290000000003 587.936 2104.183 464.505 2104.663 334.219 2050.209 203.35199999999998 1959.2930000000001 110.02999999999997 1870.469 18.855000000000018 1742.609-33.735000000000014 1615.369-37.25 1500.272-40.428999999999974 1413.575 61.377999999999986 1302.55 91.88900000000001 1188.573 123.21100000000001 1050.386 68.267 958.927 143.14800000000002 866.263 219.015 849.171 354.152 836.742 473.265 824.655 589.104 822.371 716.15 889.181 811.5509999999999 953.327 903.148 1084.596 906.268 1180.385 963.9680000000001 1272.349 1019.364 1332.64 1143.587 1440 1143.344" fill="#307ac8"></path></g><defs><mask id="SvgjsMask1001"><rect width="1440" height="560" fill="#ffffff"></rect></mask></defs></svg>