<svg width="16" height="13" viewBox="0 0 16 13" fill="none" xmlns="http://www.w3.org/2000/svg">
<path d="M0.329385 4.54599C0.540353 4.32337 0.82645 4.19831 1.12476 4.19831C1.42307 4.19831 1.70917 4.32337 1.92013 4.54599L5.89813 8.74499L13.8519 0.348178C13.9563 0.237847 14.0803 0.150313 14.2168 0.0905722C14.3533 0.0308317 14.4997 5.52113e-05 14.6474 7.42165e-08C14.7952 -5.50629e-05 14.9415 0.0306123 15.0781 0.0902509C15.2146 0.149889 15.3387 0.237332 15.4432 0.347584C15.5477 0.457837 15.6307 0.588742 15.6872 0.732824C15.7438 0.876906 15.773 1.03134 15.7731 1.18732C15.7731 1.3433 15.744 1.49776 15.6875 1.64188C15.6311 1.78601 15.5482 1.91697 15.4438 2.0273L5.89813 12.1032L0.329385 6.22512C0.11848 6.00243 0 5.70044 0 5.38555C0 5.07067 0.11848 4.76868 0.329385 4.54599Z" fill="black"/>
</svg>