<?xml version="1.0" encoding="UTF-8" standalone="no"?>
<!-- Created with Inkscape (http://www.inkscape.org/) -->

<svg
   width="800"
   height="800"
   viewBox="0 0 211.66666 211.66667"
   version="1.1"
   id="svg1"
   inkscape:version="1.3.2 (091e20e, 2023-11-25, custom)"
   sodipodi:docname="Logo Dynamhause Final.svg"
   xmlns:inkscape="http://www.inkscape.org/namespaces/inkscape"
   xmlns:sodipodi="http://sodipodi.sourceforge.net/DTD/sodipodi-0.dtd"
   xmlns="http://www.w3.org/2000/svg"
   xmlns:svg="http://www.w3.org/2000/svg">
  <sodipodi:namedview
     id="namedview1"
     pagecolor="#ffffff"
     bordercolor="#000000"
     borderopacity="0.25"
     inkscape:showpageshadow="2"
     inkscape:pageopacity="0.0"
     inkscape:pagecheckerboard="0"
     inkscape:deskcolor="#d1d1d1"
     inkscape:document-units="px"
     inkscape:zoom="0.69219276"
     inkscape:cx="310.60712"
     inkscape:cy="377.78494"
     inkscape:window-width="1920"
     inkscape:window-height="991"
     inkscape:window-x="-9"
     inkscape:window-y="-9"
     inkscape:window-maximized="1"
     inkscape:current-layer="layer1" />
  <defs
     id="defs1">
    <inkscape:path-effect
       effect="fillet_chamfer"
       id="path-effect6"
       is_visible="true"
       lpeversion="1"
       nodesatellites_param="F,0,0,1,0,0,0,1 @ F,0,0,1,0,0,0,1 @ F,0,0,1,0,4.9999965,0,1 @ F,0,0,1,0,0,0,1 @ F,0,0,1,0,0,0,1 @ F,0,0,1,0,4.4916787,0,1"
       radius="0"
       unit="px"
       method="auto"
       mode="F"
       chamfer_steps="1"
       flexible="false"
       use_knot_distance="true"
       apply_no_radius="true"
       apply_with_radius="true"
       only_selected="false"
       hide_knots="false" />
    <inkscape:path-effect
       effect="fillet_chamfer"
       id="path-effect6-2"
       is_visible="true"
       lpeversion="1"
       nodesatellites_param="F,0,0,1,0,1.0000001,0,1 @ F,0,0,1,0,0.99999971,0,1 @ F,0,0,1,0,4.9999965,0,1 @ F,0,0,1,0,0.99999998,0,1 @ F,0,0,1,0,1.0000015,0,1 @ F,0,0,1,0,4.4916787,0,1"
       radius="0"
       unit="px"
       method="auto"
       mode="F"
       chamfer_steps="1"
       flexible="false"
       use_knot_distance="true"
       apply_no_radius="true"
       apply_with_radius="true"
       only_selected="false"
       hide_knots="false" />
  </defs>
  <g
     inkscape:label="Calque 1"
     inkscape:groupmode="layer"
     id="layer1">
    <path
       id="rect2"
       style="fill:#689BFF;stroke:#000000;stroke-width:0;stroke-dasharray:none"
       d="m 108.37762,38.830158 c -3.77179,0 -7.54449,0.834192 -10.434601,2.502819 L 19.689702,86.512776 c -5.780257,3.337194 -5.780237,8.711445 0,12.048674 l 23.477864,13.55534 26.154998,-15.097832 a 35.833642,20.725915 0 0 1 -3.931667,-9.345069 35.833642,20.725915 0 0 1 35.833173,-20.724473 35.833642,20.725915 0 0 1 35.83317,20.724473 35.833642,20.725915 0 0 1 -35.83317,20.726001 35.833642,20.725915 0 0 1 -16.302522,-2.31602 l -26.103626,15.06825 39.120422,22.586 c 5.780256,3.3372 15.087406,3.3372 20.867656,0 L 197.05934,98.5583 c 5.78023,-3.337179 5.78028,-8.709835 0,-12.047089 L 118.81068,41.332977 c -2.89014,-1.668597 -6.66126,-2.502819 -10.43306,-2.502819 z m -49.559698,82.321962 -15.650356,-9.03533 -6.180761,3.56742 a 2.0040027,2.0040027 89.999999 0 0 -0.0077,0.003 l -0.108948,0.0637 a 2.9937215,2.9937215 0 0 1 -2.994659,0 l -12.80356,-7.39327 a 2.69833,2.6983302 0 0 0 -2.698931,0 l -2.390744,1.3806 a 0.98464241,0.98464241 0 0 0 0,1.70591 l 7.53334,4.34881 a 0.94867387,0.94867387 0 0 1 0,1.64361 l -2.80788,1.6203 a 1.9721032,1.9721032 0 0 1 -1.972056,0 l -2.881109,-1.66229 a 2.6983275,2.6983272 89.999999 0 0 -2.698927,0 l -2.390745,1.37902 a 0.98464188,0.98464188 0 0 0 0,1.70589 l 7.969151,4.60095 a 0.65842138,0.65842135 0 0 1 0.0016,1.13777 0.65842138,0.65842135 0 0 1 -0.0016,0.002 l -0.796915,0.45914 a 5.1892184,5.1892184 0 0 0 0.0016,8.99021 15.78628,15.78628 0 0 0 15.781098,-0.0302 z M 112.33264,73.755879 a 13.07942,7.5529747 0 0 0 -13.079049,7.553582 13.07942,7.5529747 0 0 0 13.079049,7.55358 13.07942,7.5529747 0 0 0 13.08062,-7.55358 13.07942,7.5529747 0 0 0 -13.08062,-7.553582 z M 60.253001,131.48553 a 1.7389578,1.7389578 0 0 0 -1.436644,1.71214 v 12.04866 a 5.2168698,5.2168698 0 0 0 2.608659,4.51843 l 33.909358,19.57739 a 26.084341,26.084341 0 0 0 26.083396,0 l 33.91093,-19.57739 a 5.2168723,5.2168723 0 0 0 2.6071,-4.51843 v -12.04866 a 1.7389599,1.7389599 0 0 0 -2.6071,-1.50512 l -35.23548,20.34312 a 23.432516,23.432516 0 0 1 -23.432724,0 l -35.23548,-20.34312 a 1.7389578,1.7389578 0 0 0 -1.172015,-0.207 z" />
  </g>
</svg>
