<svg width="10" height="9" viewBox="0 0 10 9" fill="none" xmlns="http://www.w3.org/2000/svg">
<path d="M9.19227 0.835544C8.66864 0.299494 7.9754 0.00651076 7.23553 0.00651076C6.49565 0.00651076 5.8003 0.301664 5.27666 0.837714L5.00318 1.11768L4.72546 0.833374C4.20183 0.297323 3.50435 0 2.76447 0C2.02672 0 1.33136 0.295153 0.809847 0.829033C0.28621 1.36508 -0.00210838 2.07692 1.16084e-05 2.83434C1.16084e-05 3.59175 0.29045 4.30142 0.814086 4.83747L4.79542 8.91319C4.85054 8.96962 4.92474 9 4.99682 9C5.0689 9 5.1431 8.97179 5.19822 8.91536L9.18803 4.84615C9.71167 4.3101 9.99999 3.59826 9.99999 2.84085C10.0021 2.08343 9.71591 1.37159 9.19227 0.835544ZM8.78524 4.43164L4.99682 8.29467L1.21688 4.42513C0.801367 3.99976 0.572408 3.4355 0.572408 2.83434C0.572408 2.23318 0.799247 1.66892 1.21476 1.24572C1.62816 0.822522 2.17936 0.588136 2.76447 0.588136C3.35171 0.588136 3.90503 0.822522 4.32054 1.24789L4.79966 1.73837C4.91202 1.85339 5.09222 1.85339 5.20458 1.73837L5.67946 1.25223C6.09497 0.826863 6.64829 0.592476 7.23341 0.592476C7.81852 0.592476 8.36972 0.826863 8.78524 1.25006C9.20075 1.67543 9.42759 2.23969 9.42759 2.84085C9.42971 3.44201 9.20075 4.00627 8.78524 4.43164Z" fill="white"/>
</svg>
